<?xml version="1.0" encoding="UTF-8" standalone="no"?>
<svg
   width="300"
   height="300"
   viewBox="0 0 79.375028 79.375021"
   xml:space="preserve"
   version="1.1"
   id="svg3"
   sodipodi:docname="foxbiz.svg"
   inkscape:export-filename="windows\logo.png"
   inkscape:export-xdpi="96"
   inkscape:export-ydpi="96"
   inkscape:version="1.3.2 (091e20e, 2023-11-25, custom)"
   xmlns:inkscape="http://www.inkscape.org/namespaces/inkscape"
   xmlns:sodipodi="http://sodipodi.sourceforge.net/DTD/sodipodi-0.dtd"
   xmlns="http://www.w3.org/2000/svg"
   xmlns:svg="http://www.w3.org/2000/svg"><defs
     id="defs3" /><sodipodi:namedview
     id="namedview3"
     pagecolor="#ffffff"
     bordercolor="#000000"
     borderopacity="0.25"
     inkscape:showpageshadow="2"
     inkscape:pageopacity="0.0"
     inkscape:pagecheckerboard="0"
     inkscape:deskcolor="#d1d1d1"
     inkscape:zoom="2.0529525"
     inkscape:cx="196.30265"
     inkscape:cy="198.00751"
     inkscape:window-width="1920"
     inkscape:window-height="1009"
     inkscape:window-x="-8"
     inkscape:window-y="-8"
     inkscape:window-maximized="1"
     inkscape:current-layer="svg3" /><g
     id="g3"
     transform="matrix(0.80023683,0,0,0.80023683,-1.9084331,-2.2365308)"><path
       style="fill:#f7941d;fill-opacity:1;stroke:none;stroke-width:0.829284;stroke-opacity:1"
       d="m 37.563721,61.006652 -17.951464,3.292304 c 6.415638,5.87264 7.03168,10.612643 8.843723,17.228055 4.050036,-1.035831 8.313047,-2.009177 12.628861,-2.415765 z"
       id="path1" /><path
       style="fill:#f7941d;fill-opacity:1;stroke:none;stroke-width:0.776428;stroke-opacity:1"
       d="m 76.493175,15.280494 c 0,0 -31.523749,0.788534 -48.862691,8.932609 -0.675006,0.08449 41.042478,43.172223 18.651112,75.918377 C 69.472057,95.982876 93.333123,93.453584 93.304081,66.243008 93.040063,39.7092 83.493173,47.150107 99.347453,20.009056 90.153467,25.78841 74.65385,56.72516 70.713821,68.02161 67.91435,63.320329 60.13814,55.634765 55.770402,52.135647 c 6.895271,-0.919663 11.060595,4.197006 12.184431,3.140054 1.211843,-1.138798 9.744024,-17.585359 17.665445,-25.481257 -2.362962,-5.063866 -4.714482,-10.132131 -9.127103,-14.51395 z m -3.702412,8.339449 c 1.557706,0 2.818832,1.281367 2.819712,2.861075 0,1.580587 -1.262006,2.862835 -2.819712,2.863715 -1.557706,0 -2.820592,-1.282248 -2.820592,-2.863715 0,-1.580588 1.262886,-2.861075 2.820592,-2.861075 z m -10.253579,2.120064 c 1.739878,0 3.151495,1.431858 3.150615,3.198138 0,1.765401 -1.410737,3.197258 -3.150615,3.196378 -1.739879,0 -3.150615,-1.430977 -3.150615,-3.196378 0,-1.76628 1.409856,-3.198138 3.150615,-3.198138 z m -12.276837,2.730826 a 3.5290406,3.5290406 0 1 1 0,7.058081 3.5290406,3.5290406 0 0 1 0,-7.058081 z"
       id="path2" /><path
       style="fill:#00aaeb;fill-opacity:1;stroke:none;stroke-width:0.776428;stroke-opacity:1"
       d="M 4.6116346,21.271942 C 22.091386,13.817834 39.16279,5.877933 59.037185,4.6476091 l 7.058081,7.2437739 C 50.731179,13.823995 33.957235,16.652508 20.215098,23.408728 58.421143,56.930214 52.36457,102.35891 34.61024,99.846339 13.978993,96.9263 5.8032358,67.73735 11.205924,64.924679 c 5.402689,-2.813552 14.694362,9.366478 13.652371,22.197753 4.40294,-1.868367 9.624336,-2.766029 13.746537,-3.80802 C 40.391354,55.207056 20.705292,34.493964 4.6116346,21.271942 Z"
       id="path3" /></g></svg>
