<!-- Generated by IcoMoon.io -->
<svg version="1.1" xmlns="http://www.w3.org/2000/svg" width="1024" height="1024" viewBox="0 0 1024 1024">
<g id="icomoon-ignore">
</g>
<path fill="#000" d="M155.435 173.611c-15.019 5.291-27.435 23.253-27.435 39.723 0 3.413 1.237 9.984 2.773 14.635 2.517 7.637 13.312 18.987 118.997 124.885l116.267 116.48-116.267 116.48c-105.685 105.899-116.48 117.248-118.997 124.885-5.504 16.64-1.877 32.683 10.027 44.587 7.622 7.668 18.176 12.414 29.839 12.414 6.92 0 13.45-1.671 19.208-4.631l-0.236 0.11c5.419-2.603 44.715-40.875 140.843-137.216 126.507-126.72 133.504-134.059 136.32-142.72 1.409-4.083 2.223-8.788 2.223-13.683 0-6.984-1.656-13.58-4.597-19.419l0.113 0.248c-2.603-5.419-40.875-44.672-137.216-140.843-121.813-121.6-134.315-133.589-141.995-136.107-4.377-1.59-9.429-2.509-14.695-2.509-5.445 0-10.66 0.982-15.478 2.78l0.306-0.1zM497.664 770.688c-9.756 3.576-17.648 10.295-22.631 18.908l-0.11 0.206c-4.053 6.869-4.736 9.941-4.736 20.864s0.683 13.995 4.736 20.864c2.603 4.395 7.253 9.984 10.368 12.331 12.928 9.856 4.693 9.472 197.291 9.472 199.040 0 187.136 0.768 200.661-12.757 7.731-7.619 12.521-18.205 12.521-29.909s-4.79-22.29-12.516-29.904l-0.005-0.005c-13.525-13.525-1.493-12.757-201.301-12.629-149.717 0.085-178.688 0.512-184.277 2.56z"></path>
</svg>
